# xmcd CD database file
#
# Track frame offsets:
#	150
#	16165
#	37505
#	58762
#	98290
#	118784
#	149995
#	207028
#	238528
#	255084
#	270023
#	284976
#
# Disc length: 4138 seconds
#
# Revision: 0
# Processed by: cddbd v1.5.2PL0 Copyright (c) Steve Scherf et al.
# Submitted via: CDex 1.51
#
DISCID=9b10280c
DTITLE=Tom Waits - Live In Florence - 7/24/99 - Disc 1
DYEAR=1900
DGENRE=Blues
TTITLE0=Jockey Full Of Bourbon
TTITLE1=Earth Died Screaming
TTITLE2=Jesus Gonna Be Here
TTITLE3=Get Behind The Mule
TTITLE4=Chocolate Jesus
TTITLE5=Hold On
TTITLE6=Eyeball Kid
TTITLE7=Tango Till They're Sore
TTITLE8=That Feel
TTITLE9=I Beg Your Pardon, Dear
TTITLE10=The Briar And The Rose
TTITLE11=Innocent When You Dream
EXTD=
EXTT0=
EXTT1=
EXTT2=
EXTT3=
EXTT4=
EXTT5=
EXTT6=
EXTT7=
EXTT8=
EXTT9=
EXTT10=
EXTT11=
PLAYORDER=
